<svg xmlns="http://www.w3.org/2000/svg" xmlns:xlink="http://www.w3.org/1999/xlink" width="1024" zoomAndPan="magnify" viewBox="0 0 768 767.999994" height="1024" preserveAspectRatio="xMidYMid meet" version="1.0"><defs><clipPath id="19ea8ddbf0"><path d="M 0 0 L 768 0 L 768 230.398438 L 0 230.398438 Z M 0 0 " clip-rule="nonzero"/></clipPath><clipPath id="95feb277ff"><path d="M 27 0 L 741 0 C 748.160156 0 755.027344 2.84375 760.09375 7.90625 C 765.15625 12.972656 768 19.839844 768 27 L 768 203.398438 C 768 218.3125 755.910156 230.398438 741 230.398438 L 27 230.398438 C 12.089844 230.398438 0 218.3125 0 203.398438 L 0 27 C 0 12.089844 12.089844 0 27 0 Z M 27 0 " clip-rule="nonzero"/></clipPath><clipPath id="c4a310fd62"><path d="M 0 268.800781 L 230.398438 268.800781 L 230.398438 499.199219 L 0 499.199219 Z M 0 268.800781 " clip-rule="nonzero"/></clipPath><clipPath id="43eb1c3d90"><path d="M 115.199219 268.800781 C 51.578125 268.800781 0 320.375 0 384 C 0 447.625 51.578125 499.199219 115.199219 499.199219 C 178.824219 499.199219 230.398438 447.625 230.398438 384 C 230.398438 320.375 178.824219 268.800781 115.199219 268.800781 Z M 115.199219 268.800781 " clip-rule="nonzero"/></clipPath><clipPath id="e9b51ec242"><path d="M 268.875 268.800781 L 499.273438 268.800781 L 499.273438 499.199219 L 268.875 499.199219 Z M 268.875 268.800781 " clip-rule="nonzero"/></clipPath><clipPath id="fc9ce1ec16"><path d="M 384.074219 268.800781 C 320.453125 268.800781 268.875 320.375 268.875 384 C 268.875 447.625 320.453125 499.199219 384.074219 499.199219 C 447.699219 499.199219 499.273438 447.625 499.273438 384 C 499.273438 320.375 447.699219 268.800781 384.074219 268.800781 Z M 384.074219 268.800781 " clip-rule="nonzero"/></clipPath><clipPath id="d769dd717f"><path d="M 537.601562 268.800781 L 768 268.800781 L 768 499.199219 L 537.601562 499.199219 Z M 537.601562 268.800781 " clip-rule="nonzero"/></clipPath><clipPath id="d651748467"><path d="M 652.800781 268.800781 C 589.175781 268.800781 537.601562 320.375 537.601562 384 C 537.601562 447.625 589.175781 499.199219 652.800781 499.199219 C 716.421875 499.199219 768 447.625 768 384 C 768 320.375 716.421875 268.800781 652.800781 268.800781 Z M 652.800781 268.800781 " clip-rule="nonzero"/></clipPath><clipPath id="1401b174c5"><path d="M 537.601562 537.449219 L 768 537.449219 L 768 767.851562 L 537.601562 767.851562 Z M 537.601562 537.449219 " clip-rule="nonzero"/></clipPath><clipPath id="e82edf2503"><path d="M 652.800781 537.449219 C 589.175781 537.449219 537.601562 589.027344 537.601562 652.648438 C 537.601562 716.273438 589.175781 767.851562 652.800781 767.851562 C 716.421875 767.851562 768 716.273438 768 652.648438 C 768 589.027344 716.421875 537.449219 652.800781 537.449219 Z M 652.800781 537.449219 " clip-rule="nonzero"/></clipPath><clipPath id="b97b538054"><path d="M 268.875 537.601562 L 499.273438 537.601562 L 499.273438 768 L 268.875 768 Z M 268.875 537.601562 " clip-rule="nonzero"/></clipPath><clipPath id="bc8dc5341f"><path d="M 384.074219 537.601562 C 320.453125 537.601562 268.875 589.175781 268.875 652.800781 C 268.875 716.421875 320.453125 768 384.074219 768 C 447.699219 768 499.273438 716.421875 499.273438 652.800781 C 499.273438 589.175781 447.699219 537.601562 384.074219 537.601562 Z M 384.074219 537.601562 " clip-rule="nonzero"/></clipPath><clipPath id="3b1f9cdbc1"><path d="M 0.148438 537.75 L 230.550781 537.75 L 230.550781 768 L 0.148438 768 Z M 0.148438 537.75 " clip-rule="nonzero"/></clipPath><clipPath id="0899264297"><path d="M 115.351562 537.75 C 51.726562 537.75 0.148438 589.328125 0.148438 652.949219 C 0.148438 716.574219 51.726562 768.148438 115.351562 768.148438 C 178.972656 768.148438 230.550781 716.574219 230.550781 652.949219 C 230.550781 589.328125 178.972656 537.75 115.351562 537.75 Z M 115.351562 537.75 " clip-rule="nonzero"/></clipPath><clipPath id="7e2ca731bb"><path d="M 577.800781 40.199219 L 727.800781 40.199219 L 727.800781 190.199219 L 577.800781 190.199219 Z M 577.800781 40.199219 " clip-rule="nonzero"/></clipPath><clipPath id="94a7cfc981"><path d="M 652.800781 40.199219 C 611.378906 40.199219 577.800781 73.777344 577.800781 115.199219 C 577.800781 156.621094 611.378906 190.199219 652.800781 190.199219 C 694.222656 190.199219 727.800781 156.621094 727.800781 115.199219 C 727.800781 73.777344 694.222656 40.199219 652.800781 40.199219 Z M 652.800781 40.199219 " clip-rule="nonzero"/></clipPath></defs><rect x="-76.8" width="921.6" fill="#ffffff" y="-76.799999" height="921.599993" fill-opacity="1"/><rect x="-76.8" width="921.6" fill="#ffffff" y="-76.799999" height="921.599993" fill-opacity="1"/><g clip-path="url(#19ea8ddbf0)"><g clip-path="url(#95feb277ff)"><path fill="#fdedd3" d="M 0 0 L 767.699219 0 L 767.699219 230.398438 L 0 230.398438 Z M 0 0 " fill-opacity="1" fill-rule="nonzero"/></g></g><g clip-path="url(#c4a310fd62)"><g clip-path="url(#43eb1c3d90)"><path fill="#ffbe98" d="M 0 268.800781 L 230.398438 268.800781 L 230.398438 499.199219 L 0 499.199219 Z M 0 268.800781 " fill-opacity="1" fill-rule="nonzero"/></g></g><g clip-path="url(#e9b51ec242)"><g clip-path="url(#fc9ce1ec16)"><path fill="#ffbe98" d="M 268.875 268.800781 L 499.273438 268.800781 L 499.273438 499.199219 L 268.875 499.199219 Z M 268.875 268.800781 " fill-opacity="1" fill-rule="nonzero"/></g></g><g clip-path="url(#d769dd717f)"><g clip-path="url(#d651748467)"><path fill="#ff9f98" d="M 537.601562 268.800781 L 768 268.800781 L 768 499.199219 L 537.601562 499.199219 Z M 537.601562 268.800781 " fill-opacity="1" fill-rule="nonzero"/></g></g><g clip-path="url(#1401b174c5)"><g clip-path="url(#e82edf2503)"><path fill="#ff9f98" d="M 537.601562 537.449219 L 768 537.449219 L 768 767.851562 L 537.601562 767.851562 Z M 537.601562 537.449219 " fill-opacity="1" fill-rule="nonzero"/></g></g><g clip-path="url(#b97b538054)"><g clip-path="url(#bc8dc5341f)"><path fill="#ffbe98" d="M 268.875 537.601562 L 499.273438 537.601562 L 499.273438 768 L 268.875 768 Z M 268.875 537.601562 " fill-opacity="1" fill-rule="nonzero"/></g></g><g clip-path="url(#3b1f9cdbc1)"><g clip-path="url(#0899264297)"><path fill="#ffbe98" d="M 0.148438 537.75 L 230.550781 537.75 L 230.550781 768.148438 L 0.148438 768.148438 Z M 0.148438 537.75 " fill-opacity="1" fill-rule="nonzero"/></g></g><g clip-path="url(#7e2ca731bb)"><g clip-path="url(#94a7cfc981)"><path fill="#7d312b" d="M 577.800781 40.199219 L 727.800781 40.199219 L 727.800781 190.199219 L 577.800781 190.199219 Z M 577.800781 40.199219 " fill-opacity="1" fill-rule="nonzero"/></g></g></svg>